<?xml version="1.0" standalone="no"?>
<!DOCTYPE svg PUBLIC "-//W3C//DTD SVG 20010904//EN"
 "http://www.w3.org/TR/2001/REC-SVG-20010904/DTD/svg10.dtd">
<svg version="1.0" xmlns="http://www.w3.org/2000/svg"
 width="256.000000pt" height="256.000000pt" viewBox="0 0 256.000000 256.000000"
 preserveAspectRatio="xMidYMid meet">

<g transform="translate(0.000000,256.000000) scale(0.100000,-0.100000)"
fill="#000000" stroke="none">
<path d="M607 2348 c-24 -24 -24 -26 -31 -313 -3 -160 -11 -317 -16 -350 -5
-33 -16 -102 -24 -152 -17 -108 -38 -186 -71 -263 -13 -30 -41 -98 -61 -150
-20 -52 -70 -168 -110 -258 -44 -96 -74 -176 -74 -195 1 -41 24 -71 58 -74 15
-2 43 -5 62 -9 48 -8 82 20 123 103 l33 65 26 -69 c14 -37 36 -103 49 -146 29
-98 67 -150 131 -183 60 -30 80 -27 131 22 38 36 39 39 35 98 -2 51 0 61 14
64 17 3 23 -7 97 -174 53 -118 179 -202 304 -203 106 -1 125 21 143 174 l9 70
40 13 c21 7 116 24 210 37 267 38 346 60 409 112 56 46 90 54 104 25 5 -9 15
-47 22 -84 8 -44 17 -68 26 -68 16 0 34 31 34 60 0 40 -30 126 -52 150 -20 22
-26 22 -117 17 l-96 -6 69 62 c185 166 303 350 346 540 18 79 22 117 17 200
-6 128 -31 207 -99 319 -71 117 -135 189 -232 260 -162 121 -344 189 -551 207
-105 9 -111 9 -132 -11 -13 -12 -23 -31 -23 -42 -1 -19 -2 -18 -15 5 -8 14
-34 42 -59 62 -49 40 -87 47 -123 22 -13 -9 -60 -93 -107 -188 -88 -179 -157
-276 -253 -355 l-43 -35 0 290 c0 279 -1 291 -21 317 -27 34 -44 42 -106 51
-47 6 -55 4 -76 -17z m854 -444 c167 -642 232 -924 259 -1124 5 -36 14 -86 19
-110 18 -77 20 -75 -81 -95 -141 -28 -206 -27 -333 6 -60 15 -121 28 -135 29
-15 0 -20 3 -14 8 7 4 17 59 24 122 7 63 14 118 17 123 9 14 40 7 84 -21 44
-29 119 -104 119 -121 0 -4 17 -20 38 -34 42 -29 82 -27 82 4 0 43 -251 229
-310 229 -15 0 -18 14 -22 90 -5 76 -11 101 -42 166 -20 42 -58 104 -84 138
-62 77 -132 182 -132 195 0 6 19 23 43 40 71 49 170 162 220 252 26 46 77 141
114 211 38 69 69 125 71 123 2 -1 30 -106 63 -231z m407 -28 c148 -75 206
-134 286 -293 40 -80 47 -103 52 -175 4 -50 2 -99 -5 -124 -15 -54 -70 -137
-173 -260 l-84 -102 -13 62 c-12 59 -35 139 -86 309 -14 45 -25 90 -25 100 0
14 -116 483 -136 549 -4 15 0 15 46 -3 28 -11 90 -39 138 -63z m-983 -716 c40
-69 65 -139 78 -216 l6 -30 -87 -12 c-48 -7 -107 -19 -132 -27 -25 -7 -70 -19
-101 -25 -31 -6 -72 -19 -91 -29 l-35 -17 53 110 c57 119 174 424 174 453 0
17 53 -64 135 -207z m-191 -352 c14 -23 -5 -42 -33 -33 -20 6 -28 34 -14 49
11 11 35 3 47 -16z m-64 -3 c0 -8 -2 -15 -4 -15 -2 0 -6 7 -10 15 -3 8 -1 15
4 15 6 0 10 -7 10 -15z m417 -21 c-3 -3 -12 -4 -19 -1 -8 3 -5 6 6 6 11 1 17
-2 13 -5z m-77 -33 c0 -139 -27 -157 -128 -87 -37 25 -72 46 -78 46 -16 0 -38
29 -30 38 4 4 56 12 114 18 59 6 110 12 115 13 4 0 7 -12 7 -28z m-367 -52
c-10 -4 -12 -8 -5 -8 17 -1 15 -21 -3 -21 -8 0 -15 3 -15 8 0 4 -3 17 -6 30
-6 22 -5 22 21 10 24 -11 25 -13 8 -19z m534 -75 c-3 -3 -12 -4 -19 -1 -8 3
-5 6 6 6 11 1 17 -2 13 -5z"/>
</g>
</svg>
